#!OML:ASF E:\motion texture\Top Level 1\Subject 1\Session 1\male.ASF
:FULLY-SPECIFIED
:DEGREES
307
root -13.8395 17.5715 5.1647 563.231 -84.182 -555.444
lowerback -1.03329 -4.97781 -2.44603
upperback -4.61155 -6.69667 3.7877
thorax -3.4584 -3.25246 5.38583
lowerneck -5.9901 -14.3511 -15.2608
upperneck 10.1167 -21.1834 19.0901
head 7.83593 -9.98698 6.23392
rclavicle 3.75703e-014 -2.62396e-014
rhumerus -33.9549 17.5763 -87.4561
rradius 123.14
rwrist -1.47408
rhand -34.5401 -39.037
rfingers 7.12502
rthumb -7.70093 -68.8767
lclavicle 3.75703e-014 -2.62396e-014
lhumerus -24.9954 -13.9878 94.1395
lradius 106.583
lwrist -17.2751
lhand -29.5264 28.4908
lfingers 7.12502
lthumb -2.86006 58.4514
rfemur -35.9116 0.993386 13.1799
rtibia 13.7583
rfoot -7.69818 -15.5641
rtoes -4.01735
lfemur 5.56677 -3.52123 -22.9231
ltibia 16.8473
lfoot -17.0761 7.94254
ltoes -19.5858
308
root -14.0134 17.5498 5.13375 563.446 -84.0314 -555.717
lowerback -1.00761 -5.0412 -2.40936
upperback -4.61106 -6.78109 3.79645
thorax -3.46625 -3.29564 5.377
lowerneck -5.8901 -14.4236 -15.2607
upperneck 10.169 -21.3115 19.0559
head 7.85353 -10.0547 6.20608
rclavicle 1.17283e-014 9.54166e-015
rhumerus -34.3883 17.4286 -87.3341
rradius 122.581
rwrist -2.99672
rhand -34.7442 -40.5352
rfingers 7.12502
rthumb -7.89787 -70.3677
lclavicle 1.17283e-014 9.54166e-015
lhumerus -24.8832 -14.6589 94.7464
lradius 106.296
lwrist -16.0099
lhand -29.0398 27.3732
lfingers 7.12502
lthumb -2.39013 57.3395
rfemur -36.0837 0.704571 13.5389
rtibia 15.0414
rfoot -7.21541 -14.8492
rtoes -3.81508
lfemur 5.9596 -3.60262 -23.0115
ltibia 17.4093
lfoot -17.1492 7.85545
ltoes -20.6163
309
root -14.1907 17.53 5.10056 563.6 -83.9275 -555.95
lowerback -0.990399 -5.12111 -2.36225
upperback -4.60088 -6.88711 3.80855
thorax -3.45778 -3.35044 5.36423
lowerneck -5.78308 -14.4931 -15.2558
upperneck 10.1953 -21.4329 19.029
head 7.86063 -10.1199 6.18181
rclavicle 4.78698e-014 3.26007e-014
rhumerus -34.8923 17.38 -87.2808
rradius 121.904
rwrist -4.4701
rhand -34.8048 -42.0871
rfingers 7.12502
rthumb -7.95636 -71.9174
lclavicle 4.78698e-014 3.26007e-014
lhumerus -24.8217 -15.2956 95.3867
lradius 105.86
lwrist -14.7483
lhand -28.4546 26.28
lfingers 7.12502
lthumb -1.825 56.252
rfemur -36.1396 0.607018 13.8034
rtibia 16.2182
rfoot -6.58146 -14.2067
rtoes -3.54406
lfemur 6.34689 -3.70897 -23.0754
ltibia 18.0242
lfoot -17.1588 7.74617
ltoes -21.6362
310
root -14.3708 17.5125 5.06474 563.461 -83.8836 -555.89
lowerback -0.980994 -5.21621 -2.28102
upperback -4.5949 -7.01302 3.83784
thorax -3.44915 -3.4163 5.34992
lowerneck -5.66041 -14.5613 -15.2531
upperneck 10.1991 -21.5508 19.0076
head 7.85808 -10.1849 6.1616
rclavicle -1.77912e-014 -7.15625e-015
rhumerus -35.4808 17.4242 -87.2967
rradius 121.111
rwrist -5.8208
rhand -34.7096 -43.6636
rfingers 7.12502
rthumb -7.86453 -73.4973
lclavicle -1.77912e-014 -7.15625e-015
lhumerus -24.8179 -15.9108 96.0742
lradius 105.262
lwrist -13.5307
lhand -27.8039 25.3766
lfingers 7.12502
lthumb -1.19655 55.353
rfemur -36.1047 0.696471 14.0011
rtibia 17.2134
rfoot -5.64874 -13.6445
rtoes -3.28313
lfemur 6.70544 -3.85916 -23.0776
ltibia 18.6924
lfoot -17.0861 7.62153
ltoes -22.6343
311
root -14.5531 17.498 5.02693 562.666 -83.905 -555.168
lowerback -0.983485 -5.31822 -2.11592
upperback -4.5917 -7.14719 3.89026
thorax -3.44301 -3.48902 5.31245
lowerneck -5.53126 -14.635 -15.2461
upperneck 10.1821 -21.6776 19.0025
head 7.85093 -10.2543 6.14506
rclavicle 5.85172e-015 1.43125e-014
rhumerus -36.1396 17.537 -87.3805
rradius 120.204
rwrist -7.03499
rhand -34.4331 -45.1869
rfingers 7.12502
rthumb -7.59764 -75.0304
lclavicle 5.85172e-015 1.43125e-014
lhumerus -24.8625 -16.5429 96.7993
lradius 104.501
lwrist -12.3298
lhand -27.1365 24.7341
lfingers 7.12502
lthumb -0.551948 54.7131
rfemur -36.0001 0.950149 14.1867
rtibia 17.986
rfoot -4.29481 -13.1473
rtoes -2.95408
lfemur 7.02107 -4.06788 -22.9825
ltibia 19.4181
lfoot -16.9105 7.50122
ltoes -23.6124
312
root -14.7371 17.4878 4.98775 560.791 -83.9794 -553.346
lowerback -0.996505 -5.42106 -1.82505
upperback -4.59262 -7.28125 3.98096
thorax -3.44601 -3.56564 5.24497
lowerneck -5.41185 -14.7137 -15.2464
upperneck 10.1554 -21.8102 19.0097
head 7.84585 -10.3257 6.13173
rclavicle 3.27001e-014 2.38542e-014
rhumerus -36.8545 17.7177 -87.531
rradius 119.19
rwrist -8.16509
rhand -33.9762 -46.6122
rfingers 7.12502
rthumb -7.15657 -76.4712
lclavicle 3.27001e-014 2.38542e-014
lhumerus -24.9389 -17.1686 97.5636
lradius 103.559
lwrist -11.1258
lhand -26.4684 24.365
lfingers 7.12502
lthumb 0.0933773 54.3447
rfemur -35.8603 1.31592 14.4463
rtibia 18.5655
rfoot -2.5078 -12.7025
rtoes -2.30777
lfemur 7.27862 -4.32208 -22.7485
ltibia 20.2068
lfoot -16.617 7.39209
ltoes -24.5651
313
root -14.9228 17.4827 4.94838 557.665 -84.0711 -550.262
lowerback -1.00822 -5.51446 -1.39784
upperback -4.59944 -7.40164 4.11102
thorax -3.46983 -3.63952 5.14469
lowerneck -5.29718 -14.7987 -15.2569
upperneck 10.1177 -21.9481 19.0194
head 7.84055 -10.3996 6.11935
rclavicle -4.09993e-014 3.18055e-015
rhumerus -37.6229 17.954 -87.7407
rradius 118.084
rwrist -9.2851
rhand -33.305 -47.9215
rfingers 7.12502
rthumb -6.50869 -77.8015
lclavicle -4.09993e-014 3.18055e-015
lhumerus -25.055 -17.7878 98.3797
lradius 102.431
lwrist -9.89744
lhand -25.8118 24.2746
lfingers 7.12502
lthumb 0.727521 54.2531
rfemur -35.6988 1.69949 14.85
rtibia 19.0216
rfoot -0.385586 -12.227
rtoes -1.26447
lfemur 7.48066 -4.59428 -22.3802
ltibia 21.0631
lfoot -16.1971 7.2985
ltoes -25.4927
314
root -15.11 17.4833 4.90944 553.367 -84.1315 -546.001
lowerback -1.03254 -5.59186 -0.852223
upperback -4.59632 -7.50008 4.27379
thorax -3.49013 -3.70668 5.012
lowerneck -5.18977 -14.8889 -15.2728
upperneck 10.0451 -22.084 19.0332
head 7.82615 -10.4726 6.10897
rclavicle 1.91579e-014 -1.43125e-014
rhumerus -38.4055 18.2351 -88.0017
rradius 116.888
rwrist -10.4962
rhand -32.4892 -49.1307
rfingers 7.12502
rthumb -5.72105 -79.0334
lclavicle 1.91579e-014 -1.43125e-014
lhumerus -25.1849 -18.3867 99.2378
lradius 101.108
lwrist -8.63349
lhand -25.1319 24.4442
lfingers 7.12502
lthumb 1.38418 54.4194
rfemur -35.5286 2.03167 15.4323
rtibia 19.4627
rfoot 1.77119 -11.6859
rtoes 0.272736
lfemur 7.61794 -4.83374 -21.8945
ltibia 22.0085
lfoot -15.6451 7.20712
ltoes -26.4372
315
root -15.2984 17.4894 4.87102 548.437 -84.1187 -541.109
lowerback -1.05497 -5.64868 -0.243922
upperback -4.59185 -7.57146 4.45641
thorax -3.51932 -3.76248 4.86659
lowerneck -5.07575 -14.9876 -15.2956
upperneck 9.93405 -22.2202 19.037
head 7.79773 -10.5473 6.09708
rclavicle -6.62947e-014 2.38542e-014
rhumerus -39.2033 18.5424 -88.3051
rradius 115.613
rwrist -11.8938
rhand -31.5434 -50.2373
rfingers 7.12502
rthumb -4.80781 -80.1627
lclavicle -6.62947e-014 2.38542e-014
lhumerus -25.3393 -18.961 100.145
lradius 99.5898
lwrist -7.25415
lhand -24.4148 24.8421
lfingers 7.12502
lthumb 2.07672 54.8118
rfemur -35.3553 2.27314 16.1627
rtibia 20.0116
rfoot 3.56411 -11.0452
rtoes 2.20314
lfemur 7.68396 -5.00147 -21.3434
ltibia 23.052
lfoot -14.951 7.0987
ltoes -27.3533
316
root -15.4873 17.5 4.83233 543.576 -84.0014 -536.29
lowerback -1.07666 -5.68366 0.348803
upperback -4.58381 -7.61503 4.65043
thorax -3.54531 -3.80421 4.74192
lowerneck -4.96167 -15.0896 -15.3157
upperneck 9.78365 -22.3453 19.0175
head 7.7512 -10.618 6.0798
rclavicle -1.74185e-014 1.74931e-014
rhumerus -39.9868 18.8728 -88.638
rradius 114.255
rwrist -13.5544
rhand -30.4928 -51.3336
rfingers 7.12502
rthumb -3.79338 -81.2796
lclavicle -1.74185e-014 1.74931e-014
lhumerus -25.5145 -19.5144 101.106
lradius 97.8848
lwrist -5.7465
lhand -23.6714 25.4898
lfingers 7.12502
lthumb 2.79468 55.4512
rfemur -35.1819 2.46175 16.9672
rtibia 20.7217
rfoot 4.7335 -10.3391
rtoes 4.21725
lfemur 7.66112 -5.05903 -20.7747
ltibia 24.2101
lfoot -14.1074 6.969
ltoes -28.2625
317
root -15.6757 17.5145 4.79326 539.421 -83.804 -532.187
lowerback -1.10256 -5.70428 0.866803
upperback -4.56613 -7.64146 4.84203
thorax -3.55172 -3.83534 4.65449
lowerneck -4.83464 -15.1888 -15.3308
upperneck 9.5809 -22.4538 18.9901
head 7.68103 -10.6829 6.06414
rclavicle -6.25178e-014 1.74931e-014
rhumerus -40.7183 19.2134 -88.9854
rradius 112.811
rwrist -15.5133
rhand -29.3149 -52.5047
rfingers 7.12502
rthumb -2.65583 -82.4679
lclavicle -6.25178e-014 1.74931e-014
lhumerus -25.6856 -20.0723 102.096
lradius 96.0007
lwrist -4.0652
lhand -22.9088 26.4194
lfingers 7.12502
lthumb 3.53118 56.3699
rfemur -34.9955 2.61834 17.7557
rtibia 21.5872
rfoot 5.23554 -9.65243
rtoes 6.22792
lfemur 7.53537 -5.00138 -20.2377
ltibia 25.4995
lfoot -13.0879 6.79997
ltoes -29.1347
318
root -15.8628 17.532 4.7531 536.221 -83.5581 -529.055
lowerback -1.12252 -5.72027 1.27008
upperback -4.54349 -7.66356 5.02894
thorax -3.54286 -3.86071 4.62499
lowerneck -4.70387 -15.2776 -15.3455
upperneck 9.3547 -22.5393 18.952
head 7.59719 -10.7378 6.05025
rclavicle -2.41772e-014 -1.59028e-014
rhumerus -41.3772 19.5804 -89.3431
rradius 111.282
rwrist -17.814
rhand -27.9882 -53.7573
rfingers 7.12502
rthumb -1.37455 -83.7326
lclavicle -2.41772e-014 -1.59028e-014
lhumerus -25.8454 -20.6387 103.112
lradius 93.9503
lwrist -2.18026
lhand -22.1279 27.6329
lfingers 7.12502
lthumb 4.28527 57.5696
rfemur -34.777 2.79016 18.4614
rtibia 22.5491
rfoot 5.15149 -9.07163
rtoes 8.10489
lfemur 7.29783 -4.83415 -19.7524
ltibia 26.9225
lfoot -11.8635 6.59249
ltoes -29.9082
319
root -16.0481 17.5522 4.71181 533.933 -83.3131 -526.86
lowerback -1.1302 -5.7425 1.55165
upperback -4.51331 -7.6951 5.1997
thorax -3.51896 -3.88677 4.64575
lowerneck -4.57183 -15.353 -15.344
upperneck 9.12313 -22.6058 18.9112
head 7.50598 -10.7837 6.0375
rclavicle 1.63997e-014 -6.36111e-015
rhumerus -41.9369 19.9687 -89.7081
rradius 109.664
rwrist -20.4623
rhand -26.4818 -55.1367
rfingers 7.12502
rthumb 0.0804034 -85.1165
lclavicle 1.63997e-014 -6.36111e-015
lhumerus -25.9664 -21.2859 104.112
lradius 91.7436
lwrist -0.0524059
lhand -21.3504 29.1908
lfingers 7.12502
lthumb 5.03602 59.111
rfemur -34.4732 2.97788 19.0492
rtibia 23.4923
rfoot 4.66493 -8.59335
rtoes 9.74114
lfemur 6.95561 -4.58513 -19.3296
ltibia 28.474
lfoot -10.3991 6.35911
ltoes -30.4849
320
root -16.2313 17.5749 4.66913 532.199 -83.1033 -525.243
lowerback -1.12568 -5.78271 1.73636
upperback -4.47464 -7.75129 5.35973
thorax -3.48031 -3.92195 4.70882
lowerneck -4.45141 -15.4069 -15.3357
upperneck 8.90991 -22.6466 18.8772
head 7.41842 -10.8159 6.03011
rclavicle -2.69602e-014 -3.18055e-014
rhumerus -42.3677 20.3963 -90.0763
rradius 107.96
rwrist -23.4748
rhand -24.9004 -56.6326
rfingers 7.12502
rthumb 1.60772 -86.6063
lclavicle -2.69602e-014 -3.18055e-014
lhumerus -26.0099 -22.0268 105.062
lradius 89.3888
lwrist 2.38339
lhand -20.511 31.0293
lfingers 7.12502
lthumb 5.84648 60.9287
rfemur -34.0552 3.17251 19.5395
rtibia 24.3182
rfoot 3.99215 -8.20114
rtoes 11.2739
lfemur 6.50245 -4.26877 -18.9288
ltibia 30.1506
lfoot -8.67143 6.09229
ltoes -30.746
321
root -16.412 17.5996 4.62479 530.668 -82.9516 -523.852
lowerback -1.11097 -5.84469 1.85466
upperback -4.43349 -7.83684 5.51183
thorax -3.43517 -3.96961 4.80091
lowerneck -4.34738 -15.4466 -15.3177
upperneck 8.74583 -22.6754 18.8334
head 7.34494 -10.8405 6.01904
rclavicle 7.0991e-014 -2.70347e-014
rhumerus -42.6836 20.8459 -90.4385
rradius 106.19
rwrist -26.8204
rhand -23.3273 -58.0851
rfingers 7.12502
rthumb 3.12702 -88.0419
lclavicle 7.0991e-014 -2.70347e-014
lhumerus -25.9702 -22.8874 105.945
lradius 86.9142
lwrist 5.21218
lhand -19.5491 33.0942
lfingers 7.12502
lthumb 6.77514 62.9658
rfemur -33.496 3.35155 19.9724
rtibia 24.9394
rfoot 3.33865 -7.85601
rtoes 12.7351
lfemur 5.94579 -3.90196 -18.5111
ltibia 31.9343
lfoot -6.67869 5.79533
ltoes -30.5294
